<?xml version="1.0" encoding="UTF-8" standalone="no"?>
<svg
   xmlns:dc="http://purl.org/dc/elements/1.1/"
   xmlns:cc="http://creativecommons.org/ns#"
   xmlns:rdf="http://www.w3.org/1999/02/22-rdf-syntax-ns#"
   xmlns:svg="http://www.w3.org/2000/svg"
   xmlns="http://www.w3.org/2000/svg"
   id="SVGRoot"
   version="1.1"
   viewBox="0 0 512 512"
   height="512px"
   width="512px">
  <defs
     id="defs18" />
  <metadata
     id="metadata21">
    <rdf:RDF>
      <cc:Work
         rdf:about="">
        <dc:format>image/svg+xml</dc:format>
        <dc:type
           rdf:resource="http://purl.org/dc/dcmitype/StillImage" />
        <dc:title></dc:title>
      </cc:Work>
    </rdf:RDF>
  </metadata>
  <g
     id="layer1">
    <rect
       style="stroke-width:0.86549455"
       y="324"
       x="45"
       height="129"
       width="199"
       id="rect31" />
    <path
       d="M 287,436 245.6484,412.87435 204.29681,389.74871 245,365.5 l 40.70319,-24.24871 0.64841,47.37436 z"
       id="path33" />
    <ellipse
       style="stroke-width:1.30740833"
       ry="73.979019"
       rx="68.536469"
       cy="257.979"
       cx="81.536469"
       id="path37" />
    <ellipse
       style="stroke-width:1.30740833"
       ry="73.979019"
       rx="68.536469"
       cy="259.021"
       cx="208.96353"
       id="path37-6" />
    <ellipse
       ry="13.271875"
       rx="13.230412"
       cy="257.00677"
       cx="82.550171"
       id="path69"
       style="fill:#4d4d4d;stroke-width:1.10522032" />
    <ellipse
       ry="13.271875"
       rx="13.230412"
       cy="255.97595"
       cx="208.4361"
       id="path69-7"
       style="fill:#4d4d4d;stroke-width:1.10522032" />
    <rect
       y="350"
       x="84"
       height="76"
       width="95"
       id="rect92"
       style="fill:#4d4d4d" />
  </g>
  <g
     id="layer2">
    <path
       id="path95"
       d="m 143.9,99.9 c 119,-76 162,-95 162,-95 l 107,26 84,84 v 109 l -57,58 -82,41 -33,134 -3,19 -20,-3 28,-157 108,-92 13,-99 -93,-60 -38,-2 -62,53 -24,24 -63,17 z"
       style="fill:none;stroke:#000000;stroke-width:1px;stroke-linecap:butt;stroke-linejoin:miter;stroke-opacity:1" />
    <path
       id="path101"
       d="m 312.56742,473.58517 c -4.58293,-0.7157 -8.57178,-1.54046 -8.86411,-1.8328 -0.29234,-0.29234 5.68181,-35.35312 13.27589,-77.91285 l 13.80742,-77.38132 54.05669,-46.04151 54.05669,-46.04151 6.38094,-49.06732 c 3.50951,-26.98702 6.14328,-49.68663 5.85282,-50.44357 -0.29047,-0.75694 -21.26115,-14.74633 -46.60151,-31.087529 L 358.45886,64.065488 339.00091,62.970511 319.54296,61.875535 288.72148,88.130703 C 271.76967,102.57104 252.26024,119.95857 245.3672,126.76966 l -12.53281,12.38378 -30.6544,8.29803 -30.6544,8.29803 -13.08712,-27.50684 C 147.96093,106.2207 145.60545,100.49738 146.62567,99.540096 148.71094,97.583469 207.1693,61.427925 230.9,47.417796 255.99674,32.601189 284.95227,16.354358 297.35342,10.131055 L 305.80684,5.8888525 358.85342,18.682451 411.9,31.47605 454.15,73.530029 496.4,115.58401 v 53.76536 53.76536 l -28.75,29.1155 -28.75,29.1155 -41,20.635 -41,20.635 -16.64855,67.76292 c -9.1567,37.26961 -17.19068,71.58211 -17.85328,76.25 -0.66261,4.6679 -1.27077,8.43549 -1.35146,8.37243 -0.0807,-0.0631 -3.89637,-0.70021 -8.47929,-1.41591 z"
       style="fill:#ffff00" />
    <ellipse
       ry="15.05"
       rx="15.55"
       cy="493.95001"
       cx="311.45001"
       id="path103"
       style="fill:#333333" />
  </g>
</svg>
